<svg xmlns="http://www.w3.org/2000/svg" xmlns:xlink="http://www.w3.org/1999/xlink" width="487" zoomAndPan="magnify" viewBox="0 0 365.25 192.749995" height="257" preserveAspectRatio="xMidYMid meet" version="1.0"><defs><g/><clipPath id="42f1f643b5"><rect x="0" width="227" y="0" height="71"/></clipPath><clipPath id="0029adcd13"><path d="M 32 46.585938 L 84.578125 46.585938 L 84.578125 145.382812 L 32 145.382812 Z M 32 46.585938 " clip-rule="nonzero"/></clipPath></defs><g transform="matrix(1, 0, 0, 1, 92, 60)"><g clip-path="url(#42f1f643b5)"><g fill="#ffffff" fill-opacity="1"><g transform="translate(0.665994, 56.51017)"><g><path d="M 9.703125 0 L 1.5625 0 L 15.8125 -20.921875 L 1.9375 -41.046875 L 10.140625 -41.046875 L 20.609375 -25.59375 L 20.640625 -25.59375 L 31.15625 -41.046875 L 39.3125 -41.046875 L 25.4375 -20.921875 L 39.71875 0 L 31.390625 0 L 20.5625 -16.015625 Z M 9.703125 0 "/></g></g></g><g fill="#ffffff" fill-opacity="1"><g transform="translate(37.167358, 56.51017)"><g><path d="M 44.34375 -21.53125 C 44.34375 -21.1875 44.335938 -20.816406 44.328125 -20.421875 C 44.316406 -20.035156 44.285156 -19.46875 44.234375 -18.71875 L 10.1875 -18.71875 C 10.476562 -15.976562 11.28125 -13.601562 12.59375 -11.59375 C 13.90625 -9.582031 15.554688 -8.03125 17.546875 -6.9375 C 19.535156 -5.851562 21.65625 -5.3125 23.90625 -5.3125 C 26.664062 -5.3125 29.023438 -5.90625 30.984375 -7.09375 C 32.941406 -8.289062 34.378906 -10.046875 35.296875 -12.359375 L 43.0625 -12.359375 C 42.46875 -10.472656 41.585938 -8.710938 40.421875 -7.078125 C 39.253906 -5.441406 37.84375 -4.015625 36.1875 -2.796875 C 34.539062 -1.578125 32.691406 -0.617188 30.640625 0.078125 C 28.585938 0.773438 26.394531 1.125 24.0625 1.125 C 21.082031 1.125 18.328125 0.566406 15.796875 -0.546875 C 13.265625 -1.660156 11.050781 -3.207031 9.15625 -5.1875 C 7.257812 -7.175781 5.785156 -9.476562 4.734375 -12.09375 C 3.691406 -14.707031 3.171875 -17.519531 3.171875 -20.53125 C 3.171875 -23.53125 3.691406 -26.335938 4.734375 -28.953125 C 5.785156 -31.566406 7.257812 -33.867188 9.15625 -35.859375 C 11.050781 -37.847656 13.265625 -39.40625 15.796875 -40.53125 C 18.328125 -41.65625 21.082031 -42.21875 24.0625 -42.21875 C 27.019531 -42.21875 29.738281 -41.664062 32.21875 -40.5625 C 34.695312 -39.46875 36.84375 -37.953125 38.65625 -36.015625 C 40.46875 -34.085938 41.867188 -31.878906 42.859375 -29.390625 C 43.847656 -26.910156 44.34375 -24.289062 44.34375 -21.53125 Z M 10.5 -24.828125 L 37.265625 -24.828125 C 37.160156 -26.273438 36.738281 -27.65625 36 -28.96875 C 35.257812 -30.289062 34.285156 -31.453125 33.078125 -32.453125 C 31.867188 -33.460938 30.476562 -34.253906 28.90625 -34.828125 C 27.34375 -35.410156 25.691406 -35.703125 23.953125 -35.703125 C 21.910156 -35.703125 19.960938 -35.285156 18.109375 -34.453125 C 16.253906 -33.617188 14.65625 -32.394531 13.3125 -30.78125 C 11.976562 -29.175781 11.039062 -27.191406 10.5 -24.828125 Z M 10.5 -24.828125 "/></g></g></g><g fill="#ffffff" fill-opacity="1"><g transform="translate(79.261459, 56.51017)"><g><path d="M 13.5625 0 L 6.640625 0 L 6.640625 -41.046875 L 13.28125 -41.046875 L 13.28125 -33.125 C 14.0625 -34.894531 15.195312 -36.460938 16.6875 -37.828125 C 18.175781 -39.203125 19.925781 -40.273438 21.9375 -41.046875 C 23.945312 -41.828125 26.101562 -42.21875 28.40625 -42.21875 C 33.851562 -42.21875 37.984375 -40.53125 40.796875 -37.15625 C 43.617188 -33.789062 45.03125 -28.820312 45.03125 -22.25 L 45.03125 0 L 38.109375 0 L 38.109375 -22.140625 C 38.109375 -26.859375 37.085938 -30.300781 35.046875 -32.46875 C 33.015625 -34.644531 30.210938 -35.734375 26.640625 -35.734375 C 24.921875 -35.734375 23.273438 -35.410156 21.703125 -34.765625 C 20.140625 -34.128906 18.75 -33.191406 17.53125 -31.953125 C 16.3125 -30.722656 15.34375 -29.234375 14.625 -27.484375 C 13.914062 -25.742188 13.5625 -23.773438 13.5625 -21.578125 Z M 13.5625 0 "/></g></g></g><g fill="#ffffff" fill-opacity="1"><g transform="translate(125.660762, 56.51017)"><g><path d="M 30.0625 0 L 22.5 0 C 20.9375 0 19.390625 -0.195312 17.859375 -0.59375 C 16.335938 -1 14.953125 -1.738281 13.703125 -2.8125 C 12.453125 -3.882812 11.453125 -5.421875 10.703125 -7.421875 C 9.953125 -9.421875 9.578125 -12.019531 9.578125 -15.21875 L 9.578125 -34.96875 L 0.4375 -34.96875 L 0.4375 -41.046875 L 9.578125 -41.046875 L 9.578125 -53.25 L 16.5 -53.28125 L 16.5 -41.046875 L 30.0625 -41.046875 L 30.0625 -34.96875 L 16.5 -34.96875 L 16.5 -14.890625 C 16.5 -12.984375 16.707031 -11.429688 17.125 -10.234375 C 17.539062 -9.046875 18.101562 -8.132812 18.8125 -7.5 C 19.519531 -6.875 20.3125 -6.445312 21.1875 -6.21875 C 22.0625 -5.988281 22.953125 -5.875 23.859375 -5.875 L 30.0625 -5.875 Z M 30.0625 0 "/></g></g></g><g fill="#ffffff" fill-opacity="1"><g transform="translate(153.229839, 56.51017)"><g><path d="M 13.609375 0 L 6.640625 0 L 6.640625 -41.046875 L 13.328125 -41.046875 L 13.328125 -31.875 C 14.335938 -34.71875 15.921875 -36.957031 18.078125 -38.59375 C 20.242188 -40.226562 22.816406 -41.046875 25.796875 -41.046875 L 29.78125 -41.046875 L 29.78125 -34.96875 L 26.15625 -34.96875 C 23.769531 -34.96875 21.625 -34.347656 19.71875 -33.109375 C 17.8125 -31.878906 16.316406 -30.097656 15.234375 -27.765625 C 14.148438 -25.429688 13.609375 -22.613281 13.609375 -19.3125 Z M 13.609375 0 "/></g></g></g><g fill="#ffffff" fill-opacity="1"><g transform="translate(179.672321, 56.51017)"><g><path d="M 24.515625 1.171875 C 21.484375 1.171875 18.671875 0.613281 16.078125 -0.5 C 13.484375 -1.613281 11.222656 -3.160156 9.296875 -5.140625 C 7.367188 -7.128906 5.863281 -9.4375 4.78125 -12.0625 C 3.707031 -14.695312 3.171875 -17.519531 3.171875 -20.53125 C 3.171875 -23.53125 3.707031 -26.335938 4.78125 -28.953125 C 5.863281 -31.566406 7.363281 -33.867188 9.28125 -35.859375 C 11.195312 -37.847656 13.445312 -39.40625 16.03125 -40.53125 C 18.625 -41.65625 21.453125 -42.21875 24.515625 -42.21875 C 27.566406 -42.21875 30.394531 -41.660156 33 -40.546875 C 35.601562 -39.429688 37.867188 -37.878906 39.796875 -35.890625 C 41.734375 -33.910156 43.238281 -31.601562 44.3125 -28.96875 C 45.382812 -26.34375 45.921875 -23.53125 45.921875 -20.53125 C 45.921875 -17.519531 45.382812 -14.695312 44.3125 -12.0625 C 43.238281 -9.4375 41.734375 -7.128906 39.796875 -5.140625 C 37.867188 -3.160156 35.601562 -1.613281 33 -0.5 C 30.394531 0.613281 27.566406 1.171875 24.515625 1.171875 Z M 24.59375 -5.359375 C 26.625 -5.359375 28.507812 -5.734375 30.25 -6.484375 C 32 -7.234375 33.53125 -8.289062 34.84375 -9.65625 C 36.164062 -11.03125 37.1875 -12.640625 37.90625 -14.484375 C 38.632812 -16.335938 39 -18.351562 39 -20.53125 C 39 -22.695312 38.632812 -24.695312 37.90625 -26.53125 C 37.1875 -28.375 36.164062 -29.976562 34.84375 -31.34375 C 33.53125 -32.71875 32 -33.785156 30.25 -34.546875 C 28.507812 -35.316406 26.625 -35.703125 24.59375 -35.703125 C 22.550781 -35.703125 20.648438 -35.316406 18.890625 -34.546875 C 17.140625 -33.785156 15.601562 -32.71875 14.28125 -31.34375 C 12.96875 -29.976562 11.941406 -28.375 11.203125 -26.53125 C 10.460938 -24.695312 10.09375 -22.695312 10.09375 -20.53125 C 10.09375 -18.351562 10.460938 -16.335938 11.203125 -14.484375 C 11.941406 -12.640625 12.96875 -11.03125 14.28125 -9.65625 C 15.601562 -8.289062 17.140625 -7.234375 18.890625 -6.484375 C 20.648438 -5.734375 22.550781 -5.359375 24.59375 -5.359375 Z M 24.59375 -5.359375 "/></g></g></g></g></g><g clip-path="url(#0029adcd13)"><path fill="#1b17ff" d="M 67.929688 46.585938 C 65.800781 46.585938 64.878906 47.929688 64.117188 49.296875 L 32.429688 105.488281 L 52.664062 142.609375 C 53.367188 143.875 54.453125 145.324219 56.640625 145.324219 L 70.863281 145.324219 C 71.71875 145.324219 72.40625 145 72.753906 144.398438 C 73.128906 143.789062 73.121094 142.988281 72.722656 142.199219 L 52.648438 105.535156 C 52.628906 105.503906 52.628906 105.46875 52.648438 105.441406 L 84.179688 49.695312 C 84.574219 48.90625 84.582031 48.105469 84.210938 47.496094 C 83.84375 46.90625 83.171875 46.585938 82.3125 46.585938 Z M 67.929688 46.585938 " fill-opacity="1" fill-rule="nonzero"/></g><path fill="#1b17ff" d="M 8.089844 66.070312 C 7.234375 66.070312 6.558594 66.394531 6.199219 66.980469 C 5.824219 67.589844 5.835938 68.390625 6.230469 69.179688 L 15.921875 85.804688 C 15.9375 85.835938 15.9375 85.867188 15.921875 85.902344 L 0.75 112.621094 C 0.355469 113.410156 0.347656 114.210938 0.726562 114.820312 C 1.089844 115.40625 1.757812 115.730469 2.617188 115.730469 L 16.894531 115.730469 C 19.023438 115.730469 19.984375 114.332031 20.714844 113.015625 L 36.140625 85.851562 C 36.078125 85.757812 26.3125 68.785156 26.3125 68.785156 C 25.605469 67.523438 24.515625 66.070312 22.332031 66.070312 Z M 8.089844 66.070312 " fill-opacity="1" fill-rule="nonzero"/></svg>